<?xml version="1.0" encoding="UTF-8" standalone="no"?>
<!-- Created with Inkscape (http://www.inkscape.org/) -->

<svg
   xmlns:dc="http://purl.org/dc/elements/1.1/"
   xmlns:cc="http://creativecommons.org/ns#"
   xmlns:rdf="http://www.w3.org/1999/02/22-rdf-syntax-ns#"
   xmlns:svg="http://www.w3.org/2000/svg"
   xmlns="http://www.w3.org/2000/svg"
   xmlns:sodipodi="http://sodipodi.sourceforge.net/DTD/sodipodi-0.dtd"
   xmlns:inkscape="http://www.inkscape.org/namespaces/inkscape"
   width="150"
   height="100"
   id="svg2"
   version="1.1"
   inkscape:version="0.48.4 r9939"
   sodipodi:docname="pic2_scheme.svg"
   inkscape:export-filename="C:\TeX\FKS\pics\pic2_scheme.png"
   inkscape:export-xdpi="199"
   inkscape:export-ydpi="199">
  <defs
     id="defs4">
    <marker
       inkscape:stockid="DotM"
       orient="auto"
       refY="0.0"
       refX="0.0"
       id="DotM"
       style="overflow:visible">
      <path
         id="path3906"
         d="M -2.5,-1.0 C -2.5,1.7600000 -4.7400000,4.0 -7.5,4.0 C -10.260000,4.0 -12.5,1.7600000 -12.5,-1.0 C -12.5,-3.7600000 -10.260000,-6.0 -7.5,-6.0 C -4.7400000,-6.0 -2.5,-3.7600000 -2.5,-1.0 z "
         style="fill-rule:evenodd;stroke:#000000;stroke-width:1.0pt"
         transform="scale(0.4) translate(7.4, 1)" />
    </marker>
    <marker
       inkscape:stockid="DotS"
       orient="auto"
       refY="0.0"
       refX="0.0"
       id="DotS"
       style="overflow:visible">
      <path
         id="path3909"
         d="M -2.5,-1.0 C -2.5,1.7600000 -4.7400000,4.0 -7.5,4.0 C -10.260000,4.0 -12.5,1.7600000 -12.5,-1.0 C -12.5,-3.7600000 -10.260000,-6.0 -7.5,-6.0 C -4.7400000,-6.0 -2.5,-3.7600000 -2.5,-1.0 z "
         style="fill-rule:evenodd;stroke:#000000;stroke-width:1.0pt"
         transform="scale(0.2) translate(7.4, 1)" />
    </marker>
    <marker
       inkscape:stockid="DotL"
       orient="auto"
       refY="0.0"
       refX="0.0"
       id="DotL"
       style="overflow:visible">
      <path
         id="path3903"
         d="M -2.5,-1.0 C -2.5,1.7600000 -4.7400000,4.0 -7.5,4.0 C -10.260000,4.0 -12.5,1.7600000 -12.5,-1.0 C -12.5,-3.7600000 -10.260000,-6.0 -7.5,-6.0 C -4.7400000,-6.0 -2.5,-3.7600000 -2.5,-1.0 z "
         style="fill-rule:evenodd;stroke:#000000;stroke-width:1.0pt"
         transform="scale(0.8) translate(7.4, 1)" />
    </marker>
    <inkscape:perspective
       sodipodi:type="inkscape:persp3d"
       inkscape:vp_x="0 : 50 : 1"
       inkscape:vp_y="0 : 1000 : 0"
       inkscape:vp_z="150 : 50 : 1"
       inkscape:persp3d-origin="75 : 33.333333 : 1"
       id="perspective2987" />
    <marker
       inkscape:stockid="DotM"
       orient="auto"
       refY="0"
       refX="0"
       id="DotM-7"
       style="overflow:visible">
      <path
         inkscape:connector-curvature="0"
         id="path3906-1"
         d="m -2.5,-1 c 0,2.76 -2.24,5 -5,5 -2.76,0 -5,-2.24 -5,-5 0,-2.76 2.24,-5 5,-5 2.76,0 5,2.24 5,5 z"
         style="fill-rule:evenodd;stroke:#000000;stroke-width:1pt"
         transform="matrix(0.4,0,0,0.4,2.96,0.4)" />
    </marker>
    <marker
       inkscape:stockid="DotM"
       orient="auto"
       refY="0"
       refX="0"
       id="DotM-7-1"
       style="overflow:visible">
      <path
         inkscape:connector-curvature="0"
         id="path3906-1-7"
         d="m -2.5,-1 c 0,2.76 -2.24,5 -5,5 -2.76,0 -5,-2.24 -5,-5 0,-2.76 2.24,-5 5,-5 2.76,0 5,2.24 5,5 z"
         style="fill-rule:evenodd;stroke:#000000;stroke-width:1pt"
         transform="matrix(0.4,0,0,0.4,2.96,0.4)" />
    </marker>
  </defs>
  <sodipodi:namedview
     id="base"
     pagecolor="#ffffff"
     bordercolor="#666666"
     borderopacity="1.0"
     inkscape:pageopacity="0.0"
     inkscape:pageshadow="2"
     inkscape:zoom="11.789566"
     inkscape:cx="100.41039"
     inkscape:cy="70.123224"
     inkscape:document-units="px"
     inkscape:current-layer="layer1"
     showgrid="false"
     inkscape:window-width="1920"
     inkscape:window-height="1005"
     inkscape:window-x="-9"
     inkscape:window-y="-9"
     inkscape:window-maximized="1" />
  <metadata
     id="metadata7">
    <rdf:RDF>
      <cc:Work
         rdf:about="">
        <dc:format>image/svg+xml</dc:format>
        <dc:type
           rdf:resource="http://purl.org/dc/dcmitype/StillImage" />
        <dc:title />
      </cc:Work>
    </rdf:RDF>
  </metadata>
  <g
     inkscape:label="Layer 1"
     inkscape:groupmode="layer"
     id="layer1"
     transform="translate(0,-952.36218)">
    <path
       style="fill:none;stroke:#000000;stroke-width:0.5;stroke-linecap:butt;stroke-linejoin:miter;stroke-opacity:1;stroke-miterlimit:4;stroke-dasharray:none"
       d="m 131.59426,7.9457993 9.88501,0 0,41.4964687 -9.98798,0"
       id="path3115"
       inkscape:connector-curvature="0"
       transform="translate(0,952.36218)" />
    <path
       sodipodi:type="arc"
       style="fill:#ffffff;fill-opacity:1;stroke:#000000;stroke-width:0.5;stroke-linecap:butt;stroke-linejoin:round;stroke-miterlimit:4;stroke-opacity:1;stroke-dasharray:none;stroke-dashoffset:0"
       id="path3822"
       sodipodi:cx="141.9375"
       sodipodi:cy="26.8125"
       sodipodi:rx="7.5"
       sodipodi:ry="7.5"
       d="m 149.4375,26.8125 c 0,4.142136 -3.35786,7.5 -7.5,7.5 -4.14214,0 -7.5,-3.357864 -7.5,-7.5 0,-4.142136 3.35786,-7.5 7.5,-7.5 4.14214,0 7.5,3.357864 7.5,7.5 z"
       transform="translate(-0.43359375,952.5589)" />
    <path
       style="fill:none;stroke:#000000;stroke-width:0.5;stroke-linecap:butt;stroke-linejoin:miter;stroke-miterlimit:4;stroke-opacity:1;stroke-dasharray:none"
       d="m 139.24145,978.30292 4.5078,0"
       id="path3824"
       inkscape:connector-curvature="0" />
    <path
       style="fill:none;stroke:#000000;stroke-width:0.5;stroke-linecap:butt;stroke-linejoin:miter;stroke-miterlimit:4;stroke-opacity:1;stroke-dasharray:none"
       d="m 136.11606,980.71258 10.69499,0"
       id="path3826"
       inkscape:connector-curvature="0" />
    <path
       style="fill:none;stroke:#000000;stroke-width:0.5;stroke-linecap:butt;stroke-linejoin:miter;stroke-miterlimit:4;stroke-opacity:1;stroke-dasharray:none"
       d="m 141.50974,978.34758 0,-6.45955"
       id="path3828"
       inkscape:connector-curvature="0"
       sodipodi:nodetypes="cc" />
    <path
       style="fill:none;stroke:#000000;stroke-width:0.5;stroke-linecap:butt;stroke-linejoin:miter;stroke-miterlimit:4;stroke-opacity:1;stroke-dasharray:none"
       d="m 141.48764,980.79316 0,6.01041"
       id="path3830"
       inkscape:connector-curvature="0" />
    <rect
       style="fill:none;stroke:#000000;stroke-width:0.5;stroke-linecap:butt;stroke-linejoin:round;stroke-miterlimit:4;stroke-opacity:1;stroke-dasharray:none;stroke-dashoffset:0"
       id="rect3832"
       width="38"
       height="49"
       x="93.75"
       y="956.8421" />
    <rect
       style="fill:none;stroke:#000000;stroke-width:0.5;stroke-linecap:butt;stroke-linejoin:round;stroke-miterlimit:4;stroke-opacity:1;stroke-dasharray:none;stroke-dashoffset:0"
       id="rect3834"
       width="38"
       height="32.99913"
       x="93.75"
       y="964.76642" />
    <path
       style="fill:none;stroke:#000000;stroke-width:0.5;stroke-linecap:butt;stroke-linejoin:miter;stroke-miterlimit:4;stroke-opacity:1;stroke-dasharray:none;marker-start:url(#DotM)"
       d="m 122.51777,989.69841 -2.51943,5.64032 0,17.32677 -8.48057,0 0,19.75 22.625,0 5e-4,-19.75 -9.25,0 -5e-4,-17.29705 z"
       id="path3836"
       inkscape:connector-curvature="0"
       sodipodi:nodetypes="cccccccccc" />
    <path
       sodipodi:type="arc"
       style="fill:#ffffff;fill-opacity:1;stroke:#000000;stroke-width:0.5;stroke-linecap:butt;stroke-linejoin:round;stroke-miterlimit:4;stroke-opacity:1;stroke-dasharray:none;stroke-dashoffset:0"
       id="path3822-4"
       sodipodi:cx="141.9375"
       sodipodi:cy="26.8125"
       sodipodi:rx="7.5"
       sodipodi:ry="7.5"
       d="m 149.4375,26.8125 c 0,4.142136 -3.35786,7.5 -7.5,7.5 -4.14214,0 -7.5,-3.357864 -7.5,-7.5 0,-4.142136 3.35786,-7.5 7.5,-7.5 4.14214,0 7.5,3.357864 7.5,7.5 z"
       transform="translate(-19.121891,1005.6181)" />
    <text
       xml:space="preserve"
       style="font-size:10px;font-style:normal;font-variant:normal;font-weight:normal;font-stretch:normal;line-height:125%;letter-spacing:0px;word-spacing:0px;fill:#000000;fill-opacity:1;stroke:none;font-family:Times New Roman;-inkscape-font-specification:Times New Roman"
       x="119.19169"
       y="1036.2754"
       id="text4856"
       sodipodi:linespacing="125%"><tspan
         sodipodi:role="line"
         id="tspan4858"
         x="119.19169"
         y="1036.2754">V</tspan></text>
    <text
       xml:space="preserve"
       style="font-size:10px;font-style:normal;font-variant:normal;font-weight:normal;font-stretch:normal;line-height:125%;letter-spacing:0px;word-spacing:0px;fill:#000000;fill-opacity:1;stroke:none;font-family:Times New Roman;-inkscape-font-specification:Times New Roman"
       x="101.11627"
       y="1047.2356"
       id="text4860"
       sodipodi:linespacing="125%"><tspan
         sodipodi:role="line"
         id="tspan4862"
         x="101.11627"
         y="1047.2356">термопара</tspan></text>
    <path
       style="fill:none;stroke:#000000;stroke-width:0.5;stroke-linecap:butt;stroke-linejoin:miter;stroke-miterlimit:4;stroke-opacity:1;stroke-dasharray:none"
       d="m 123.25,33.125 0,-15.375 -115,0 0,41 75,0 0,-25.625 z"
       id="path4866"
       inkscape:connector-curvature="0"
       transform="translate(0,952.36218)"
       sodipodi:nodetypes="ccccccc" />
    <rect
       style="fill:#ffffff;fill-opacity:1;stroke:#000000;stroke-width:0.5;stroke-linecap:butt;stroke-linejoin:round;stroke-miterlimit:4;stroke-opacity:1;stroke-dasharray:none;stroke-dashoffset:0"
       id="rect4864-0"
       width="15"
       height="5"
       x="60.661613"
       y="1008.551" />
    <rect
       style="fill:#ffffff;fill-opacity:1;stroke:#000000;stroke-width:0.5;stroke-linecap:butt;stroke-linejoin:round;stroke-miterlimit:4;stroke-opacity:1;stroke-dasharray:none;stroke-dashoffset:0"
       id="rect4864"
       width="15"
       height="5"
       x="103.39108"
       y="982.95477" />
    <path
       sodipodi:type="arc"
       style="fill:#ffffff;fill-opacity:1;stroke:#000000;stroke-width:0.5;stroke-linecap:butt;stroke-linejoin:round;stroke-miterlimit:4;stroke-opacity:1;stroke-dasharray:none;stroke-dashoffset:0"
       id="path3822-9"
       sodipodi:cx="141.9375"
       sodipodi:cy="26.8125"
       sodipodi:rx="7.5"
       sodipodi:ry="7.5"
       d="m 149.4375,26.8125 c 0,4.142136 -3.35786,7.5 -7.5,7.5 -4.14214,0 -7.5,-3.357864 -7.5,-7.5 0,-4.142136 3.35786,-7.5 7.5,-7.5 4.14214,0 7.5,3.357864 7.5,7.5 z"
       transform="translate(-133.6774,963.17876)" />
    <path
       style="fill:none;stroke:#000000;stroke-width:0.5;stroke-linecap:butt;stroke-linejoin:miter;stroke-miterlimit:4;stroke-opacity:1;stroke-dasharray:none"
       d="m 5.9976359,988.92278 4.5078001,0"
       id="path3824-4"
       inkscape:connector-curvature="0" />
    <path
       style="fill:none;stroke:#000000;stroke-width:0.5;stroke-linecap:butt;stroke-linejoin:miter;stroke-miterlimit:4;stroke-opacity:1;stroke-dasharray:none"
       d="m 2.8722459,991.33244 10.6949901,0"
       id="path3826-8"
       inkscape:connector-curvature="0" />
    <path
       style="fill:none;stroke:#000000;stroke-width:0.5;stroke-linecap:butt;stroke-linejoin:miter;stroke-miterlimit:4;stroke-opacity:1;stroke-dasharray:none"
       d="m 8.265926,988.96744 0,-6.45955"
       id="path3828-8"
       inkscape:connector-curvature="0"
       sodipodi:nodetypes="cc" />
    <path
       style="fill:none;stroke:#000000;stroke-width:0.5;stroke-linecap:butt;stroke-linejoin:miter;stroke-miterlimit:4;stroke-opacity:1;stroke-dasharray:none"
       d="m 8.243826,991.41302 0,6.01044"
       id="path3830-2"
       inkscape:connector-curvature="0" />
    <rect
       style="fill:#ffffff;fill-opacity:1;stroke:#000000;stroke-width:0.5;stroke-linecap:butt;stroke-linejoin:round;stroke-miterlimit:4;stroke-opacity:1;stroke-dasharray:none;stroke-dashoffset:0"
       id="rect4864-0-4"
       width="15"
       height="5"
       x="17.168116"
       y="1008.5985" />
    <rect
       style="fill:#ffffff;fill-opacity:1;stroke:#000000;stroke-width:0.5;stroke-linecap:butt;stroke-linejoin:round;stroke-miterlimit:4;stroke-opacity:1;stroke-dasharray:none;stroke-dashoffset:0"
       id="rect4864-0-5"
       width="15"
       height="5"
       x="17.035851"
       y="967.54968" />
    <path
       style="fill:none;stroke:#000000;stroke-width:0.5;stroke-linecap:butt;stroke-linejoin:miter;stroke-miterlimit:4;stroke-opacity:1;stroke-dasharray:none;marker-start:url(#DotM-7);marker-end:url(#DotM-7-1)"
       d="m 40.616117,969.98718 0,41.12502"
       id="path4948"
       inkscape:connector-curvature="0" />
    <rect
       style="fill:#ffffff;fill-opacity:1;stroke:#000000;stroke-width:0.5;stroke-linecap:butt;stroke-linejoin:round;stroke-miterlimit:4;stroke-opacity:1;stroke-dasharray:none;stroke-dashoffset:0"
       id="rect4864-0-51"
       width="15"
       height="5"
       x="982.61218"
       y="-43.112209"
       transform="matrix(0,1,-1,0,0,0)" />
    <path
       style="fill:none;stroke:#000000;stroke-width:0.5;stroke-linecap:butt;stroke-linejoin:miter;stroke-miterlimit:4;stroke-opacity:1;stroke-dasharray:none;marker-start:url(#DotM);marker-end:url(#DotM-7)"
       d="m 53.469634,1011.1944 0,26.114 29.752051,0 5e-4,-26.2131"
       id="path3836-1"
       inkscape:connector-curvature="0"
       sodipodi:nodetypes="cccc" />
    <path
       sodipodi:type="arc"
       style="fill:#ffffff;fill-opacity:1;stroke:#000000;stroke-width:0.5;stroke-linecap:butt;stroke-linejoin:round;stroke-miterlimit:4;stroke-opacity:1;stroke-dasharray:none;stroke-dashoffset:0"
       id="path3822-4-5"
       sodipodi:cx="141.9375"
       sodipodi:cy="26.8125"
       sodipodi:rx="7.5"
       sodipodi:ry="7.5"
       d="m 149.4375,26.8125 c 0,4.142136 -3.35786,7.5 -7.5,7.5 -4.14214,0 -7.5,-3.357864 -7.5,-7.5 0,-4.142136 3.35786,-7.5 7.5,-7.5 4.14214,0 7.5,3.357864 7.5,7.5 z"
       transform="translate(-73.13082,1010.511)" />
    <text
       xml:space="preserve"
       style="font-size:10px;font-style:normal;font-variant:normal;font-weight:normal;font-stretch:normal;line-height:125%;letter-spacing:0px;word-spacing:0px;fill:#000000;fill-opacity:1;stroke:none;font-family:Times New Roman;-inkscape-font-specification:Times New Roman"
       x="65.182755"
       y="1041.1683"
       id="text4856-2"
       sodipodi:linespacing="125%"><tspan
         sodipodi:role="line"
         id="tspan4858-7"
         x="65.182755"
         y="1041.1683">V</tspan></text>
    <text
       xml:space="preserve"
       style="font-size:10px;font-style:normal;font-variant:normal;font-weight:normal;font-stretch:normal;line-height:125%;letter-spacing:0px;word-spacing:0px;fill:#000000;fill-opacity:1;stroke:none;font-family:Times New Roman;-inkscape-font-specification:Times New Roman"
       x="18.627419"
       y="964.32733"
       id="text6111"
       sodipodi:linespacing="125%"><tspan
         sodipodi:role="line"
         id="tspan6113"
         x="18.627419"
         y="964.32733">R1</tspan></text>
    <text
       xml:space="preserve"
       style="font-size:10px;font-style:normal;font-variant:normal;font-weight:normal;font-stretch:normal;line-height:125%;letter-spacing:0px;word-spacing:0px;fill:#000000;fill-opacity:1;stroke:none;font-family:Times New Roman;-inkscape-font-specification:Times New Roman"
       x="19.157747"
       y="1005.6931"
       id="text6115"
       sodipodi:linespacing="125%"><tspan
         sodipodi:role="line"
         id="tspan6117"
         x="19.157747"
         y="1005.6931">R2</tspan></text>
    <text
       xml:space="preserve"
       style="font-size:10px;font-style:normal;font-variant:normal;font-weight:normal;font-stretch:normal;line-height:125%;letter-spacing:0px;word-spacing:0px;fill:#000000;fill-opacity:1;stroke:none;font-family:Times New Roman;-inkscape-font-specification:Times New Roman"
       x="23.821417"
       y="991.521"
       id="text6119"
       sodipodi:linespacing="125%"><tspan
         sodipodi:role="line"
         id="tspan6121"
         x="23.821417"
         y="991.521">R3</tspan></text>
    <text
       xml:space="preserve"
       style="font-size:10px;font-style:normal;font-variant:normal;font-weight:normal;font-stretch:normal;line-height:125%;letter-spacing:0px;word-spacing:0px;fill:#000000;fill-opacity:1;stroke:none;font-family:Times New Roman;-inkscape-font-specification:Times New Roman"
       x="59.982758"
       y="1005.1628"
       id="text6123"
       sodipodi:linespacing="125%"><tspan
         sodipodi:role="line"
         id="tspan6125"
         x="59.982758"
         y="1005.1628">R<tspan
   style="font-size:65.00091553%;baseline-shift:sub"
   id="tspan6127">изм</tspan></tspan></text>
    <text
       xml:space="preserve"
       style="font-size:10px;font-style:normal;font-variant:normal;font-weight:normal;font-stretch:normal;line-height:125%;letter-spacing:0px;word-spacing:0px;fill:#000000;fill-opacity:1;stroke:none;font-family:Times New Roman;-inkscape-font-specification:Times New Roman"
       x="103.11969"
       y="979.1908"
       id="text6123-6"
       sodipodi:linespacing="125%"><tspan
         sodipodi:role="line"
         id="tspan6125-1"
         x="103.11969"
         y="979.1908">R<tspan
   style="font-size:65.00091553%;baseline-shift:sub"
   id="tspan6153">обр</tspan></tspan></text>
    <text
       xml:space="preserve"
       style="font-size:10px;font-style:normal;font-variant:normal;font-weight:normal;font-stretch:normal;line-height:125%;letter-spacing:0px;word-spacing:0px;fill:#000000;fill-opacity:1;stroke:none;font-family:Times New Roman;-inkscape-font-specification:Times New Roman"
       x="72.301666"
       y="962.0293"
       id="text6155"
       sodipodi:linespacing="125%"><tspan
         sodipodi:role="line"
         id="tspan6157"
         x="72.301666"
         y="962.0293">печь</tspan></text>
    <path
       style="fill:none;stroke:#000000;stroke-width:0.5;stroke-linecap:butt;stroke-linejoin:miter;stroke-miterlimit:4;stroke-opacity:1;stroke-dasharray:none;marker-start:url(#DotM-7);marker-end:none"
       d="m 53.46675,970.08269 0,19.20245 m 0,1.75215 0,22.26401"
       id="path4948-4"
       inkscape:connector-curvature="0"
       sodipodi:nodetypes="cccc" />
    <path
       style="fill:none;stroke:#000000;stroke-width:1px;stroke-linecap:butt;stroke-linejoin:miter;stroke-opacity:1"
       d="m 48.788563,989.36478 9.5,0"
       id="path3060"
       inkscape:connector-curvature="0" />
    <path
       style="fill:none;stroke:#000000;stroke-width:1px;stroke-linecap:butt;stroke-linejoin:miter;stroke-opacity:1"
       d="m 48.802717,991.10906 9.5,0"
       id="path3060-0"
       inkscape:connector-curvature="0" />
    <text
       xml:space="preserve"
       style="font-size:10px;font-style:normal;font-variant:normal;font-weight:normal;font-stretch:normal;line-height:125%;letter-spacing:0px;word-spacing:0px;fill:#000000;fill-opacity:1;stroke:none;font-family:Times New Roman;-inkscape-font-specification:Times New Roman"
       x="57.805977"
       y="986.60126"
       id="text4068"
       sodipodi:linespacing="125%"><tspan
         sodipodi:role="line"
         id="tspan4070"
         x="57.805977"
         y="986.60126">C<tspan
   style="font-size:65.00091553%;baseline-shift:sub"
   id="tspan4072">б</tspan></tspan></text>
    <path
       sodipodi:type="arc"
       style="fill:none;stroke:#000000;stroke-width:0.25;stroke-linecap:butt;stroke-linejoin:round;stroke-miterlimit:4;stroke-opacity:1;stroke-dasharray:none;stroke-dashoffset:0"
       id="path3044"
       sodipodi:cx="98.026398"
       sodipodi:cy="9.2843952"
       sodipodi:rx="2.6771915"
       sodipodi:ry="2.6771915"
       d="m 100.70359,9.2843952 c 0,1.4785718 -1.19862,2.6771918 -2.677192,2.6771918 -1.478572,0 -2.677192,-1.19862 -2.677192,-2.6771918 0,-1.478572 1.19862,-2.6771915 2.677192,-2.6771915 1.478572,0 2.677192,1.1986195 2.677192,2.6771915 z"
       transform="translate(-0.22420621,951.27559)" />
    <path
       transform="translate(7.2757938,951.27559)"
       sodipodi:type="arc"
       style="fill:none;stroke:#000000;stroke-width:0.25;stroke-linecap:butt;stroke-linejoin:round;stroke-miterlimit:4;stroke-opacity:1;stroke-dasharray:none;stroke-dashoffset:0"
       id="path3044-1"
       sodipodi:cx="98.026398"
       sodipodi:cy="9.2843952"
       sodipodi:rx="2.6771915"
       sodipodi:ry="2.6771915"
       d="m 100.70359,9.2843952 c 0,1.4785718 -1.19862,2.6771918 -2.677192,2.6771918 -1.478572,0 -2.677192,-1.19862 -2.677192,-2.6771918 0,-1.478572 1.19862,-2.6771915 2.677192,-2.6771915 1.478572,0 2.677192,1.1986195 2.677192,2.6771915 z" />
    <path
       transform="translate(14.775794,951.27559)"
       sodipodi:type="arc"
       style="fill:none;stroke:#000000;stroke-width:0.25;stroke-linecap:butt;stroke-linejoin:round;stroke-miterlimit:4;stroke-opacity:1;stroke-dasharray:none;stroke-dashoffset:0"
       id="path3044-7"
       sodipodi:cx="98.026398"
       sodipodi:cy="9.2843952"
       sodipodi:rx="2.6771915"
       sodipodi:ry="2.6771915"
       d="m 100.70359,9.2843952 c 0,1.4785718 -1.19862,2.6771918 -2.677192,2.6771918 -1.478572,0 -2.677192,-1.19862 -2.677192,-2.6771918 0,-1.478572 1.19862,-2.6771915 2.677192,-2.6771915 1.478572,0 2.677192,1.1986195 2.677192,2.6771915 z" />
    <path
       transform="translate(22.275794,951.27559)"
       sodipodi:type="arc"
       style="fill:none;stroke:#000000;stroke-width:0.25;stroke-linecap:butt;stroke-linejoin:round;stroke-miterlimit:4;stroke-opacity:1;stroke-dasharray:none;stroke-dashoffset:0"
       id="path3044-4"
       sodipodi:cx="98.026398"
       sodipodi:cy="9.2843952"
       sodipodi:rx="2.6771915"
       sodipodi:ry="2.6771915"
       d="m 100.70359,9.2843952 c 0,1.4785718 -1.19862,2.6771918 -2.677192,2.6771918 -1.478572,0 -2.677192,-1.19862 -2.677192,-2.6771918 0,-1.478572 1.19862,-2.6771915 2.677192,-2.6771915 1.478572,0 2.677192,1.1986195 2.677192,2.6771915 z" />
    <path
       transform="translate(29.775794,951.27559)"
       sodipodi:type="arc"
       style="fill:none;stroke:#000000;stroke-width:0.25;stroke-linecap:butt;stroke-linejoin:round;stroke-miterlimit:4;stroke-opacity:1;stroke-dasharray:none;stroke-dashoffset:0"
       id="path3044-0"
       sodipodi:cx="98.026398"
       sodipodi:cy="9.2843952"
       sodipodi:rx="2.6771915"
       sodipodi:ry="2.6771915"
       d="m 100.70359,9.2843952 c 0,1.4785718 -1.19862,2.6771918 -2.677192,2.6771918 -1.478572,0 -2.677192,-1.19862 -2.677192,-2.6771918 0,-1.478572 1.19862,-2.6771915 2.677192,-2.6771915 1.478572,0 2.677192,1.1986195 2.677192,2.6771915 z" />
    <path
       sodipodi:type="arc"
       style="fill:none;stroke:#000000;stroke-width:0.25;stroke-linecap:butt;stroke-linejoin:round;stroke-miterlimit:4;stroke-opacity:1;stroke-dasharray:none;stroke-dashoffset:0"
       id="path3044-9"
       sodipodi:cx="98.026398"
       sodipodi:cy="9.2843952"
       sodipodi:rx="2.6771915"
       sodipodi:ry="2.6771915"
       d="m 100.70359,9.2843952 c 0,1.4785718 -1.19862,2.6771918 -2.677192,2.6771918 -1.478572,0 -2.677192,-1.19862 -2.677192,-2.6771918 0,-1.478572 1.19862,-2.6771915 2.677192,-2.6771915 1.478572,0 2.677192,1.1986195 2.677192,2.6771915 z"
       transform="translate(-0.37841608,992.72599)" />
    <path
       transform="translate(7.121584,992.72599)"
       sodipodi:type="arc"
       style="fill:none;stroke:#000000;stroke-width:0.25;stroke-linecap:butt;stroke-linejoin:round;stroke-miterlimit:4;stroke-opacity:1;stroke-dasharray:none;stroke-dashoffset:0"
       id="path3044-1-4"
       sodipodi:cx="98.026398"
       sodipodi:cy="9.2843952"
       sodipodi:rx="2.6771915"
       sodipodi:ry="2.6771915"
       d="m 100.70359,9.2843952 c 0,1.4785718 -1.19862,2.6771918 -2.677192,2.6771918 -1.478572,0 -2.677192,-1.19862 -2.677192,-2.6771918 0,-1.478572 1.19862,-2.6771915 2.677192,-2.6771915 1.478572,0 2.677192,1.1986195 2.677192,2.6771915 z" />
    <path
       transform="translate(14.621584,992.72599)"
       sodipodi:type="arc"
       style="fill:none;stroke:#000000;stroke-width:0.25;stroke-linecap:butt;stroke-linejoin:round;stroke-miterlimit:4;stroke-opacity:1;stroke-dasharray:none;stroke-dashoffset:0"
       id="path3044-7-8"
       sodipodi:cx="98.026398"
       sodipodi:cy="9.2843952"
       sodipodi:rx="2.6771915"
       sodipodi:ry="2.6771915"
       d="m 100.70359,9.2843952 c 0,1.4785718 -1.19862,2.6771918 -2.677192,2.6771918 -1.478572,0 -2.677192,-1.19862 -2.677192,-2.6771918 0,-1.478572 1.19862,-2.6771915 2.677192,-2.6771915 1.478572,0 2.677192,1.1986195 2.677192,2.6771915 z" />
    <path
       transform="translate(22.121584,992.72599)"
       sodipodi:type="arc"
       style="fill:none;stroke:#000000;stroke-width:0.25;stroke-linecap:butt;stroke-linejoin:round;stroke-miterlimit:4;stroke-opacity:1;stroke-dasharray:none;stroke-dashoffset:0"
       id="path3044-4-8"
       sodipodi:cx="98.026398"
       sodipodi:cy="9.2843952"
       sodipodi:rx="2.6771915"
       sodipodi:ry="2.6771915"
       d="m 100.70359,9.2843952 c 0,1.4785718 -1.19862,2.6771918 -2.677192,2.6771918 -1.478572,0 -2.677192,-1.19862 -2.677192,-2.6771918 0,-1.478572 1.19862,-2.6771915 2.677192,-2.6771915 1.478572,0 2.677192,1.1986195 2.677192,2.6771915 z" />
    <path
       transform="translate(29.621584,992.72599)"
       sodipodi:type="arc"
       style="fill:none;stroke:#000000;stroke-width:0.25;stroke-linecap:butt;stroke-linejoin:round;stroke-miterlimit:4;stroke-opacity:1;stroke-dasharray:none;stroke-dashoffset:0"
       id="path3044-0-2"
       sodipodi:cx="98.026398"
       sodipodi:cy="9.2843952"
       sodipodi:rx="2.6771915"
       sodipodi:ry="2.6771915"
       d="m 100.70359,9.2843952 c 0,1.4785718 -1.19862,2.6771918 -2.677192,2.6771918 -1.478572,0 -2.677192,-1.19862 -2.677192,-2.6771918 0,-1.478572 1.19862,-2.6771915 2.677192,-2.6771915 1.478572,0 2.677192,1.1986195 2.677192,2.6771915 z" />
  </g>
</svg>
