<?xml version="1.0" encoding="UTF-8" standalone="no"?>
<!-- Created with Inkscape (http://www.inkscape.org/) -->

<svg
   xmlns:dc="http://purl.org/dc/elements/1.1/"
   xmlns:cc="http://creativecommons.org/ns#"
   xmlns:rdf="http://www.w3.org/1999/02/22-rdf-syntax-ns#"
   xmlns:svg="http://www.w3.org/2000/svg"
   xmlns="http://www.w3.org/2000/svg"
   xmlns:sodipodi="http://sodipodi.sourceforge.net/DTD/sodipodi-0.dtd"
   xmlns:inkscape="http://www.inkscape.org/namespaces/inkscape"
   id="svg2"
   version="1.1"
   inkscape:version="0.48.4 r9939"
   width="167.08248"
   height="162.84687"
   xml:space="preserve"
   sodipodi:docname="pic4_taumetr.eps"
   inkscape:export-filename="C:\TeX\FKS\pics\pic4_taumetr.png"
   inkscape:export-xdpi="199"
   inkscape:export-ydpi="199"><metadata
     id="metadata8"><rdf:RDF><cc:Work
         rdf:about=""><dc:format>image/svg+xml</dc:format><dc:type
           rdf:resource="http://purl.org/dc/dcmitype/StillImage" /><dc:title></dc:title></cc:Work></rdf:RDF></metadata><defs
     id="defs6" /><sodipodi:namedview
     pagecolor="#ffffff"
     bordercolor="#666666"
     borderopacity="1"
     objecttolerance="10"
     gridtolerance="10"
     guidetolerance="10"
     inkscape:pageopacity="0"
     inkscape:pageshadow="2"
     inkscape:window-width="1920"
     inkscape:window-height="1005"
     id="namedview4"
     showgrid="false"
     inkscape:zoom="4.9760131"
     inkscape:cx="83.541237"
     inkscape:cy="81.423431"
     inkscape:window-x="-9"
     inkscape:window-y="-9"
     inkscape:window-maximized="1"
     inkscape:current-layer="g12" /><g
     id="g10"
     inkscape:groupmode="layer"
     inkscape:label="Блок-схема"
     transform="matrix(1.25,0,0,-1.25,0,162.84687)"><g
       id="g12"><g
         id="g14"
         transform="matrix(1,0,0,-1,0,130.2775)"><path
           d="m 76.656,38.871 0,17.016 38.469,0 0,16.269 -52.297,0 0,10.574"
           style="fill:none;stroke:#000000;stroke-opacity:1;stroke-width:0.4;stroke-linecap:butt;stroke-linejoin:miter;stroke-miterlimit:4;stroke-dasharray:none"
           id="path16" /></g><g
         id="g18"
         transform="matrix(0,1,1,0,0,130.2775)"><path
           d="m -81.129,62.828 0.801,-0.797 -2.801,0.797 2.801,0.801 -0.801,-0.801 z"
           style="fill:#000000;fill-opacity:1;fill-rule:evenodd;stroke:#000000;stroke-opacity:1;stroke-width:0.2;stroke-linecap:butt;stroke-linejoin:miter;stroke-miterlimit:4;stroke-dasharray:none"
           id="path20" /></g><g
         id="g22"
         transform="matrix(1,0,0,-1,0,130.2775)"><path
           d="m 14.625,83.484 0,-16.839 35.18,0 0,-26.817"
           style="fill:none;stroke:#000000;stroke-opacity:1;stroke-width:0.4;stroke-linecap:butt;stroke-linejoin:miter;stroke-miterlimit:4;stroke-dasharray:none"
           id="path24" /></g><g
         id="g26"
         transform="matrix(0,-1,-1,0,0,130.2775)"><path
           d="m 41.43,-49.805 0.8,-0.8 -2.8,0.8 2.8,0.801 -0.8,-0.801 z"
           style="fill:#000000;fill-opacity:1;fill-rule:evenodd;stroke:#000000;stroke-opacity:1;stroke-width:0.2;stroke-linecap:butt;stroke-linejoin:miter;stroke-miterlimit:4;stroke-dasharray:none"
           id="path28" /></g><g
         id="g30"
         transform="matrix(1,0,0,-1,0,130.2775)"><path
           d="m 5.703,4.199 83.898,0 0,9.262 -83.898,0 0,-9.262 z"
           style="fill:none;stroke:#000000;stroke-opacity:1;stroke-width:0.4;stroke-linecap:butt;stroke-linejoin:miter;stroke-miterlimit:4;stroke-dasharray:none"
           id="path32" /></g><text
         transform="matrix(1,0,0,-1,26.620743,119.63189)"
         id="text34"><tspan
           style="fill:#000000;fill-opacity:1;fill-rule:nonzero;stroke:none;font-family:Times New Roman;font-variant:normal;font-weight:normal;font-size:6.4;writing-mode:lr;-inkscape-font-specification:TimesNewRomanPSMT"
           x="0 4.6208 7.8208 11.0144 14.2144 17.6384 20.8384 24.0384 27.0592 30.2592 33.5296 36.9536 40.3776"
           y="0"
           sodipodi:role="line"
           id="tspan36">Полупроводник</tspan></text>
<g
         id="g38"
         transform="matrix(1,0,0,-1,0,130.2775)"><path
           d="m 10.195,32.59 21.684,0 0,21.691 -21.684,0 0,-21.691 z"
           style="fill:none;stroke:#000000;stroke-opacity:1;stroke-width:0.4;stroke-linecap:butt;stroke-linejoin:miter;stroke-miterlimit:4;stroke-dasharray:none"
           id="path40" /></g><text
         transform="matrix(1,0,0,-1,13.010981,84.737121)"
         id="text42"><tspan
           style="fill:#000000;fill-opacity:1;fill-rule:nonzero;stroke:none;font-family:Times New Roman;font-variant:normal;font-weight:normal;font-size:6.4;writing-mode:lr;-inkscape-font-specification:TimesNewRomanPSMT"
           x="0 3.6992 7.9616 12.224"
           y="0"
           sodipodi:role="line"
           id="tspan44">ГСВЧ</tspan></text>
<g
         id="g46"
         transform="matrix(1,0,0,-1,0,130.2775)"><path
           d="m 20.496,32.176 0,-9.934"
           style="fill:none;stroke:#000000;stroke-opacity:1;stroke-width:0.4;stroke-linecap:butt;stroke-linejoin:miter;stroke-miterlimit:4;stroke-dasharray:none"
           id="path48" /></g><g
         id="g50"
         transform="matrix(1,0,0,-1,0,130.2775)"><path
           d="M 33.082,22.371 C 29.129,26.52 20.434,27.918 13.652,25.5 11.422,24.703 9.586,23.551 8.348,22.16"
           style="fill:none;stroke:#000000;stroke-opacity:1;stroke-width:0.4;stroke-linecap:butt;stroke-linejoin:miter;stroke-miterlimit:4;stroke-dasharray:none"
           id="path52" /></g><g
         id="g54"
         transform="matrix(1,0,0,-1,0,130.2775)"><path
           d="m 16.41,22.066 0,-6.464"
           style="fill:none;stroke:#000000;stroke-opacity:1;stroke-width:0.4;stroke-linecap:butt;stroke-linejoin:miter;stroke-miterlimit:4;stroke-dasharray:none"
           id="path56" /></g><g
         id="g58"
         transform="matrix(0,-1,-1,0,0,130.2775)"><path
           d="M 17.203,-16.41 18,-17.207 15.203,-16.41 18,-15.609 17.203,-16.41 z"
           style="fill:#000000;fill-opacity:1;fill-rule:evenodd;stroke:#000000;stroke-opacity:1;stroke-width:0.2;stroke-linecap:butt;stroke-linejoin:miter;stroke-miterlimit:4;stroke-dasharray:none"
           id="path60" /></g><g
         id="g62"
         transform="matrix(1,0,0,-1,0,130.2775)"><path
           d="m 24.555,22.066 0,-6.464"
           style="fill:none;stroke:#000000;stroke-opacity:1;stroke-width:0.4;stroke-linecap:butt;stroke-linejoin:miter;stroke-miterlimit:4;stroke-dasharray:none"
           id="path64" /></g><g
         id="g66"
         transform="matrix(0,-1,-1,0,0,130.2775)"><path
           d="m 17.203,-24.555 0.797,-0.8 -2.797,0.8 2.797,0.797 -0.797,-0.797 z"
           style="fill:#000000;fill-opacity:1;fill-rule:evenodd;stroke:#000000;stroke-opacity:1;stroke-width:0.2;stroke-linecap:butt;stroke-linejoin:miter;stroke-miterlimit:4;stroke-dasharray:none"
           id="path68" /></g><g
         id="g70"
         transform="matrix(1,0,0,-1,0,130.2775)"><path
           d="m 20.496,21.34 0,-6.465"
           style="fill:none;stroke:#000000;stroke-opacity:1;stroke-width:0.4;stroke-linecap:butt;stroke-linejoin:miter;stroke-miterlimit:4;stroke-dasharray:none"
           id="path72" /></g><g
         id="g74"
         transform="matrix(0,-1,-1,0,0,130.2775)"><path
           d="m 16.477,-20.496 0.796,-0.801 -2.796,0.801 2.796,0.801 -0.796,-0.801 z"
           style="fill:#000000;fill-opacity:1;fill-rule:evenodd;stroke:#000000;stroke-opacity:1;stroke-width:0.2;stroke-linecap:butt;stroke-linejoin:miter;stroke-miterlimit:4;stroke-dasharray:none"
           id="path76" /></g><text
         transform="matrix(1,0,0,-1,5.272928,69.99433)"
         id="text78"><tspan
           style="fill:#000000;fill-opacity:1;fill-rule:nonzero;stroke:none;font-family:Times New Roman;font-variant:normal;font-weight:normal;font-size:6.4;writing-mode:lr;-inkscape-font-specification:TimesNewRomanPSMT"
           x="0"
           y="0"
           id="tspan80">f</tspan></text>
<text
         transform="matrix(1,0,0,-1,7.410428,68.71433)"
         id="text82"><tspan
           style="fill:#000000;fill-opacity:1;fill-rule:nonzero;stroke:none;font-family:Times New Roman;font-variant:normal;font-weight:normal;font-size:4.160059;writing-mode:lr;-inkscape-font-specification:TimesNewRomanPSMT"
           x="0 2.77059929 5.54119859"
           y="0"
           sodipodi:role="line"
           id="tspan84">СВЧ</tspan></text>
<text
         transform="matrix(1,0,0,-1,17.27367,69.99433)"
         id="text86"><tspan
           style="fill:#000000;fill-opacity:1;fill-rule:nonzero;stroke:none;font-family:Times New Roman;font-variant:normal;font-weight:normal;font-size:6.4;writing-mode:lr;-inkscape-font-specification:TimesNewRomanPSMT"
           x="0 3.6032 5.2032 8.4032"
           y="0"
           sodipodi:role="line"
           id="tspan88">= 5 </tspan></text>
<text
         transform="matrix(1,0,0,-1,27.27687,69.99433)"
         id="text90"><tspan
           style="fill:#000000;fill-opacity:1;fill-rule:nonzero;stroke:none;font-family:Times New Roman;font-variant:normal;font-weight:normal;font-size:6.4;writing-mode:lr;-inkscape-font-specification:TimesNewRomanPSMT"
           x="0 3.6992 7.3984"
           y="0"
           sodipodi:role="line"
           id="tspan92">ГГц</tspan></text>
<g
         id="g94"
         transform="matrix(1,0,0,-1,0,130.2775)"><path
           d="m 39.758,23.359 0,15.77 19.238,0 0,-16.402"
           style="fill:none;stroke:#000000;stroke-opacity:1;stroke-width:0.4;stroke-linecap:butt;stroke-linejoin:miter;stroke-miterlimit:4;stroke-dasharray:none"
           id="path96" /></g><text
         transform="matrix(1,0,0,-1,42.910178,93.244714)"
         id="text98"><tspan
           style="fill:#000000;fill-opacity:1;fill-rule:nonzero;stroke:none;font-family:Times New Roman;font-variant:normal;font-weight:normal;font-size:6.4;writing-mode:lr;-inkscape-font-specification:TimesNewRomanPSMT"
           x="0 4.6208 8.8832"
           y="0"
           sodipodi:role="line"
           id="tspan100">ИКД</tspan></text>
<g
         id="g102"
         transform="matrix(1,0,0,-1,0,130.2775)"><path
           d="m 39.77,27.77 19.289,0"
           style="fill:none;stroke:#000000;stroke-opacity:1;stroke-width:0.4;stroke-linecap:butt;stroke-linejoin:miter;stroke-miterlimit:4;stroke-dasharray:none"
           id="path104" /></g><g
         id="g106"
         transform="matrix(1,0,0,-1,0,130.2775)"><path
           d="m 46.793,24.273 0,7.082 6.23,-3.597 -6.23,-3.485 z"
           style="fill:#ffffff;fill-opacity:1;fill-rule:nonzero;stroke:#000000;stroke-opacity:1;stroke-width:0.4;stroke-linecap:butt;stroke-linejoin:miter;stroke-miterlimit:4;stroke-dasharray:none"
           id="path108" /></g><g
         id="g110"
         transform="matrix(1,0,0,-1,0,130.2775)"><path
           d="m 53.039,23.977 0,7.527"
           style="fill:none;stroke:#000000;stroke-opacity:1;stroke-width:0.4;stroke-linecap:butt;stroke-linejoin:miter;stroke-miterlimit:4;stroke-dasharray:none"
           id="path112" /></g><g
         id="g114"
         transform="matrix(1,0,0,-1,0,130.2775)"><path
           d="m 66.578,23.266 0,15.769 19.238,0 0,-16.398"
           style="fill:none;stroke:#000000;stroke-opacity:1;stroke-width:0.4;stroke-linecap:butt;stroke-linejoin:miter;stroke-miterlimit:4;stroke-dasharray:none"
           id="path116" /></g><text
         transform="matrix(1,0,0,-1,71.963456,93.336322)"
         id="text118"><tspan
           style="fill:#000000;fill-opacity:1;fill-rule:nonzero;stroke:none;font-family:Times New Roman;font-variant:normal;font-weight:normal;font-size:6.4;writing-mode:lr;-inkscape-font-specification:TimesNewRomanPSMT"
           x="0 4.3648"
           y="0"
           sodipodi:role="line"
           id="tspan120">ДД</tspan></text>
<g
         id="g122"
         transform="matrix(1,0,0,-1,0,130.2775)"><path
           d="m 66.594,27.68 19.289,0"
           style="fill:none;stroke:#000000;stroke-opacity:1;stroke-width:0.4;stroke-linecap:butt;stroke-linejoin:miter;stroke-miterlimit:4;stroke-dasharray:none"
           id="path124" /></g><g
         id="g126"
         transform="matrix(1,0,0,-1,0,130.2775)"><path
           d="m 73.617,24.184 0,7.078 6.227,-3.594 -6.227,-3.484 z"
           style="fill:#ffffff;fill-opacity:1;fill-rule:nonzero;stroke:#000000;stroke-opacity:1;stroke-width:0.4;stroke-linecap:butt;stroke-linejoin:miter;stroke-miterlimit:4;stroke-dasharray:none"
           id="path128" /></g><g
         id="g130"
         transform="matrix(1,0,0,-1,0,130.2775)"><path
           d="m 79.863,23.887 0,7.527"
           style="fill:none;stroke:#000000;stroke-opacity:1;stroke-width:0.4;stroke-linecap:butt;stroke-linejoin:miter;stroke-miterlimit:4;stroke-dasharray:none"
           id="path132" /></g><g
         id="g134"
         transform="matrix(1,0,0,-1,0,130.2775)"><path
           d="m 48.121,22.184 0,-6.465"
           style="fill:none;stroke:#000000;stroke-opacity:1;stroke-width:0.4;stroke-linecap:butt;stroke-linejoin:miter;stroke-miterlimit:4;stroke-dasharray:none"
           id="path136" /></g><g
         id="g138"
         transform="matrix(0,-1,-1,0,0,130.2775)"><path
           d="m 17.32,-48.121 0.801,-0.801 -2.801,0.801 2.801,0.797 -0.801,-0.797 z"
           style="fill:#000000;fill-opacity:1;fill-rule:evenodd;stroke:#000000;stroke-opacity:1;stroke-width:0.2;stroke-linecap:butt;stroke-linejoin:miter;stroke-miterlimit:4;stroke-dasharray:none"
           id="path140" /></g><g
         id="g142"
         transform="matrix(1,0,0,-1,0,130.2775)"><path
           d="m 51.645,22.184 0,-6.465"
           style="fill:none;stroke:#000000;stroke-opacity:1;stroke-width:0.4;stroke-linecap:butt;stroke-linejoin:miter;stroke-miterlimit:4;stroke-dasharray:none"
           id="path144" /></g><g
         id="g146"
         transform="matrix(0,-1,-1,0,0,130.2775)"><path
           d="m 17.32,-51.645 0.801,-0.796 -2.801,0.796 2.801,0.801 -0.801,-0.801 z"
           style="fill:#000000;fill-opacity:1;fill-rule:evenodd;stroke:#000000;stroke-opacity:1;stroke-width:0.2;stroke-linecap:butt;stroke-linejoin:miter;stroke-miterlimit:4;stroke-dasharray:none"
           id="path148" /></g><g
         id="g150"
         transform="matrix(1,0,0,-1,0,130.2775)"><path
           d="m 73.164,15.344 0,6.465"
           style="fill:none;stroke:#000000;stroke-opacity:1;stroke-width:0.4;stroke-linecap:butt;stroke-linejoin:miter;stroke-miterlimit:4;stroke-dasharray:none"
           id="path152" /></g><g
         id="g154"
         transform="matrix(0,1,1,0,0,130.2775)"><path
           d="m -20.207,73.164 0.801,-0.801 -2.801,0.801 2.801,0.801 -0.801,-0.801 z"
           style="fill:#000000;fill-opacity:1;fill-rule:evenodd;stroke:#000000;stroke-opacity:1;stroke-width:0.2;stroke-linecap:butt;stroke-linejoin:miter;stroke-miterlimit:4;stroke-dasharray:none"
           id="path156" /></g><g
         id="g158"
         transform="matrix(1,0,0,-1,0,130.2775)"><path
           d="m 76.684,15.344 0,6.465"
           style="fill:none;stroke:#000000;stroke-opacity:1;stroke-width:0.4;stroke-linecap:butt;stroke-linejoin:miter;stroke-miterlimit:4;stroke-dasharray:none"
           id="path160" /></g><g
         id="g162"
         transform="matrix(0,1,1,0,0,130.2775)"><path
           d="m -20.207,76.684 0.801,-0.801 -2.801,0.801 2.801,0.8 -0.801,-0.8 z"
           style="fill:#000000;fill-opacity:1;fill-rule:evenodd;stroke:#000000;stroke-opacity:1;stroke-width:0.2;stroke-linecap:butt;stroke-linejoin:miter;stroke-miterlimit:4;stroke-dasharray:none"
           id="path164" /></g><g
         id="g166"
         transform="matrix(1,0,0,-1,0,130.2775)"><path
           d="m 80.195,15.34 0,6.469"
           style="fill:none;stroke:#000000;stroke-opacity:1;stroke-width:0.4;stroke-linecap:butt;stroke-linejoin:miter;stroke-miterlimit:4;stroke-dasharray:none"
           id="path168" /></g><g
         id="g170"
         transform="matrix(0,1,1,0,0,130.2775)"><path
           d="m -20.207,80.195 0.801,-0.797 -2.801,0.797 2.801,0.801 -0.801,-0.801 z"
           style="fill:#000000;fill-opacity:1;fill-rule:evenodd;stroke:#000000;stroke-opacity:1;stroke-width:0.2;stroke-linecap:butt;stroke-linejoin:miter;stroke-miterlimit:4;stroke-dasharray:none"
           id="path172" /></g><g
         id="g174"
         transform="matrix(1,0,0,-1,0,130.2775)"><path
           d="m 43.672,47.578 12.043,0 0,12.043 -12.043,0 0,-12.043 z"
           style="fill:#ffffff;fill-opacity:1;fill-rule:nonzero;stroke:#000000;stroke-opacity:1;stroke-width:0.4;stroke-linecap:butt;stroke-linejoin:miter;stroke-miterlimit:4;stroke-dasharray:none"
           id="path176" /></g><text
         transform="matrix(1,0,0,-1,46.125296,74.44715)"
         id="text178"><tspan
           style="fill:#000000;fill-opacity:1;fill-rule:nonzero;stroke:none;font-family:Times New Roman;font-variant:normal;font-weight:normal;font-size:6.4;writing-mode:lr;-inkscape-font-specification:TimesNewRomanPSMT"
           x="0 3.5584"
           y="0"
           sodipodi:role="line"
           id="tspan180">РТ</tspan></text>
<g
         id="g182"
         transform="matrix(1,0,0,-1,0,130.2775)"><path
           d="m 88.59,43.922 0,23.984 20.793,-12.004 -20.793,-11.98 z"
           style="fill:#ffffff;fill-opacity:1;fill-rule:nonzero;stroke:#000000;stroke-opacity:1;stroke-width:0.4;stroke-linecap:butt;stroke-linejoin:miter;stroke-miterlimit:4;stroke-dasharray:none"
           id="path184" /></g><text
         transform="matrix(1,0,0,-1,93.726969,71.861896)"
         id="text186"><tspan
           style="fill:#000000;fill-opacity:1;fill-rule:nonzero;stroke:none;font-family:Times New Roman;font-variant:normal;font-weight:normal;font-size:6.4;writing-mode:lr;-inkscape-font-specification:TimesNewRomanPSMT"
           x="0"
           y="0"
           id="tspan188">У</tspan></text>
<g
         id="g190"
         transform="matrix(1,0,0,-1,0,130.2775)"><path
           d="m 9.301,83.355 16,0 0,27.75 -16,0 0,-27.75 z"
           style="fill:none;stroke:#000000;stroke-opacity:1;stroke-width:0.4;stroke-linecap:butt;stroke-linejoin:miter;stroke-miterlimit:4;stroke-dasharray:none"
           id="path192" /></g><text
         transform="matrix(1,0,0,-1,15.441828,30.760492)"
         id="text194"><tspan
           style="fill:#000000;fill-opacity:1;fill-rule:nonzero;stroke:none;font-family:Times New Roman;font-variant:normal;font-weight:normal;font-size:6.4;writing-mode:lr;-inkscape-font-specification:TimesNewRomanPSMT"
           x="0"
           y="0"
           id="tspan196">Г</tspan></text>
<g
         id="g198"
         transform="matrix(1,0,0,-1,0,130.2775)"><path
           d="m 30.555,83.355 16,0 0,27.75 -16,0 0,-27.75 z"
           style="fill:none;stroke:#000000;stroke-opacity:1;stroke-width:0.4;stroke-linecap:butt;stroke-linejoin:miter;stroke-miterlimit:4;stroke-dasharray:none"
           id="path200" /></g><text
         transform="matrix(1,0,0,-1,32.125333,30.760492)"
         id="text202"><tspan
           style="fill:#000000;fill-opacity:1;fill-rule:nonzero;stroke:none;font-family:Times New Roman;font-variant:normal;font-weight:normal;font-size:6.4;writing-mode:lr;-inkscape-font-specification:TimesNewRomanPSMT"
           x="0 4.5312 9.152"
           y="0"
           sodipodi:role="line"
           id="tspan204">УПР</tspan></text>
<g
         id="g206"
         transform="matrix(1,0,0,-1,0,130.2775)"><path
           d="m 51.871,83.355 16,0 0,27.75 -16,0 0,-27.75 z"
           style="fill:none;stroke:#000000;stroke-opacity:1;stroke-width:0.4;stroke-linecap:butt;stroke-linejoin:miter;stroke-miterlimit:4;stroke-dasharray:none"
           id="path208" /></g><text
         transform="matrix(1,0,0,-1,52.884092,30.760492)"
         id="text210"><tspan
           style="fill:#000000;fill-opacity:1;fill-rule:nonzero;stroke:none;font-family:Times New Roman;font-variant:normal;font-weight:normal;font-size:6.4;writing-mode:lr;-inkscape-font-specification:TimesNewRomanPSMT"
           x="0 4.6208 9.2416"
           y="0"
           sodipodi:role="line"
           id="tspan212">АЦП</tspan></text>
<g
         id="g214"
         transform="matrix(1,0,0,-1,0,130.2775)"><path
           d="m 4.199,77.016 68.688,0 0,49.063 -68.688,0 0,-49.063 z"
           style="fill:none;stroke:#000000;stroke-opacity:1;stroke-width:0.4;stroke-linecap:butt;stroke-linejoin:miter;stroke-miterlimit:4;stroke-dasharray:3.2,1.6;stroke-dashoffset:0"
           id="path216" /></g><g
         id="g218"
         transform="matrix(1,0,0,-1,0,130.2775)"><path
           d="m 25.465,97.156 5.125,0"
           style="fill:none;stroke:#000000;stroke-opacity:1;stroke-width:0.4;stroke-linecap:butt;stroke-linejoin:miter;stroke-miterlimit:4;stroke-dasharray:none"
           id="path220" /></g><g
         id="g222"
         transform="matrix(1,0,0,-1,0,130.2775)"><path
           d="m 27.063,97.156 0.8,-0.801 -2.8,0.801 2.8,0.801 -0.8,-0.801 z"
           style="fill:#000000;fill-opacity:1;fill-rule:evenodd;stroke:#000000;stroke-opacity:1;stroke-width:0.2;stroke-linecap:butt;stroke-linejoin:miter;stroke-miterlimit:4;stroke-dasharray:none"
           id="path224" /></g><g
         id="g226"
         transform="matrix(-1,0,0,1,0,130.2775)"><path
           d="m -28.988,-97.156 0.8,-0.801 -2.8,0.801 2.8,0.801 -0.8,-0.801 z"
           style="fill:#000000;fill-opacity:1;fill-rule:evenodd;stroke:#000000;stroke-opacity:1;stroke-width:0.2;stroke-linecap:butt;stroke-linejoin:miter;stroke-miterlimit:4;stroke-dasharray:none"
           id="path228" /></g><g
         id="g230"
         transform="matrix(1,0,0,-1,0,130.2775)"><path
           d="m 46.625,97.277 5.125,0"
           style="fill:none;stroke:#000000;stroke-opacity:1;stroke-width:0.4;stroke-linecap:butt;stroke-linejoin:miter;stroke-miterlimit:4;stroke-dasharray:none"
           id="path232" /></g><g
         id="g234"
         transform="matrix(1,0,0,-1,0,130.2775)"><path
           d="m 48.227,97.277 0.8,-0.8 -2.8,0.8 2.8,0.801 -0.8,-0.801 z"
           style="fill:#000000;fill-opacity:1;fill-rule:evenodd;stroke:#000000;stroke-opacity:1;stroke-width:0.2;stroke-linecap:butt;stroke-linejoin:miter;stroke-miterlimit:4;stroke-dasharray:none"
           id="path236" /></g><g
         id="g238"
         transform="matrix(-1,0,0,1,0,130.2775)"><path
           d="m -50.152,-97.277 0.8,-0.801 -2.8,0.801 2.8,0.8 -0.8,-0.8 z"
           style="fill:#000000;fill-opacity:1;fill-rule:evenodd;stroke:#000000;stroke-opacity:1;stroke-width:0.2;stroke-linecap:butt;stroke-linejoin:miter;stroke-miterlimit:4;stroke-dasharray:none"
           id="path240" /></g><g
         id="g242"
         transform="matrix(1,0,0,-1,0,130.2775)"><path
           d="m 77.516,83.355 16,0 0,27.75 -16,0 0,-27.75 z"
           style="fill:none;stroke:#000000;stroke-opacity:1;stroke-width:0.4;stroke-linecap:butt;stroke-linejoin:miter;stroke-miterlimit:4;stroke-dasharray:none"
           id="path244" /></g><text
         transform="matrix(1,0,0,-1,81.528775,30.760492)"
         id="text246"><tspan
           style="fill:#000000;fill-opacity:1;fill-rule:nonzero;stroke:none;font-family:Times New Roman;font-variant:normal;font-weight:normal;font-size:6.4;writing-mode:lr;-inkscape-font-specification:TimesNewRomanPSMT"
           x="0 3.6736"
           y="0"
           sodipodi:role="line"
           id="tspan248">БС</tspan></text>
<g
         id="g250"
         transform="matrix(1,0,0,-1,0,130.2775)"><path
           d="m 107.293,83.355 22.172,0 0,27.75 -22.172,0 0,-27.75 z"
           style="fill:none;stroke:#000000;stroke-opacity:1;stroke-width:0.4;stroke-linecap:butt;stroke-linejoin:miter;stroke-miterlimit:4;stroke-dasharray:none"
           id="path252" /></g><text
         transform="matrix(1,0,0,-1,113.81444,30.760492)"
         id="text254"><tspan
           style="fill:#000000;fill-opacity:1;fill-rule:nonzero;stroke:none;font-family:Times New Roman;font-variant:normal;font-weight:normal;font-size:6.4;writing-mode:lr;-inkscape-font-specification:TimesNewRomanPSMT"
           x="0 4.6208"
           y="0"
           sodipodi:role="line"
           id="tspan256">ПК</tspan></text>
<g
         id="g258"
         transform="matrix(1,0,0,-1,0,130.2775)"><path
           d="m 94.148,97.207 12.5,0"
           style="fill:none;stroke:#000000;stroke-opacity:1;stroke-width:0.4;stroke-linecap:butt;stroke-linejoin:miter;stroke-miterlimit:4;stroke-dasharray:none"
           id="path260" /></g><g
         id="g262"
         transform="matrix(1,0,0,-1,0,130.2775)"><path
           d="m 95.746,97.207 0.801,-0.801 -2.801,0.801 2.801,0.801 -0.801,-0.801 z"
           style="fill:#000000;fill-opacity:1;fill-rule:evenodd;stroke:#000000;stroke-opacity:1;stroke-width:0.2;stroke-linecap:butt;stroke-linejoin:miter;stroke-miterlimit:4;stroke-dasharray:none"
           id="path264" /></g><g
         id="g266"
         transform="matrix(-1,0,0,1,0,130.2775)"><path
           d="m -105.051,-97.207 0.801,-0.801 -2.801,0.801 2.801,0.801 -0.801,-0.801 z"
           style="fill:#000000;fill-opacity:1;fill-rule:evenodd;stroke:#000000;stroke-opacity:1;stroke-width:0.2;stroke-linecap:butt;stroke-linejoin:miter;stroke-miterlimit:4;stroke-dasharray:none"
           id="path268" /></g><g
         id="g270"
         transform="matrix(1,0,0,-1,0,130.2775)"><path
           d="m 37.867,111 0,5.063 48.129,0 0,-4.965"
           style="fill:none;stroke:#000000;stroke-opacity:1;stroke-width:0.4;stroke-linecap:butt;stroke-linejoin:miter;stroke-miterlimit:4;stroke-dasharray:none"
           id="path272" /></g><g
         id="g274"
         transform="matrix(0,-1,-1,0,0,130.2775)"><path
           d="m 112.602,-37.867 0.8,-0.797 -2.8,0.797 2.8,0.801 -0.8,-0.801 z"
           style="fill:#000000;fill-opacity:1;fill-rule:evenodd;stroke:#000000;stroke-opacity:1;stroke-width:0.2;stroke-linecap:butt;stroke-linejoin:miter;stroke-miterlimit:4;stroke-dasharray:none"
           id="path276" /></g><g
         id="g278"
         transform="matrix(0,-1,-1,0,0,130.2775)"><path
           d="m 112.699,-85.996 0.797,-0.801 -2.797,0.801 2.797,0.801 -0.797,-0.801 z"
           style="fill:#000000;fill-opacity:1;fill-rule:evenodd;stroke:#000000;stroke-opacity:1;stroke-width:0.2;stroke-linecap:butt;stroke-linejoin:miter;stroke-miterlimit:4;stroke-dasharray:none"
           id="path280" /></g><g
         id="g282"
         transform="matrix(1,0,0,-1,0,130.2775)"><path
           d="m 19.875,83.316 0,-11.187 36.738,0 0,10.465"
           style="fill:none;stroke:#000000;stroke-opacity:1;stroke-width:0.4;stroke-linecap:butt;stroke-linejoin:miter;stroke-miterlimit:4;stroke-dasharray:none"
           id="path284" /></g><g
         id="g286"
         transform="matrix(0,1,1,0,0,130.2775)"><path
           d="m -80.996,56.613 0.801,-0.797 -2.801,0.797 2.801,0.801 -0.801,-0.801 z"
           style="fill:#000000;fill-opacity:1;fill-rule:evenodd;stroke:#000000;stroke-opacity:1;stroke-width:0.2;stroke-linecap:butt;stroke-linejoin:miter;stroke-miterlimit:4;stroke-dasharray:none"
           id="path288" /></g><text
         transform="matrix(1,0,0,-1,6.815558,6.832599)"
         id="text290"><tspan
           style="fill:#000000;fill-opacity:1;fill-rule:nonzero;stroke:none;font-family:Times New Roman;font-variant:normal;font-weight:normal;font-size:6.4;writing-mode:lr;-inkscape-font-specification:TimesNewRomanPSMT"
           x="0 5.6896 9.952 14.5728 16.1728 19.3728 22.5728 24.704"
           y="0"
           sodipodi:role="line"
           id="tspan292">MCU 32-1</tspan></text>
</g></g></svg>